# xmcd
#
# Track frame offsets:
#	150
#	15882
#	30031
#	47749
#	70364
#	86484
#	100344
#	112242
#	130063
#	143754
#	162430
#	180905
#	199990
#	216419
#	232480
#	245667
#	263270
#	278523
#	291804
#	309934
#
# Disc length: 4304 seconds
#
# Revision: 2
# Processed by: cddbd v1.5.1PL0 Copyright (c) Steve Scherf et al.
# Submitted via: audiograbber 1.83.01
#
DISCID=1710ce14
DTITLE=Various Artists CDX - CDX  346
DYEAR=2004
DGENRE=Country
TTITLE0=Gretchen Wilson - Here for the party
TTITLE1=Tracy Lawrence - It's All How You Look At It
TTITLE2=Anita Cochran - I Wanna Hear A Cheatin' Song
TTITLE3=Tim McGraw - Live Like You Were Dying
TTITLE4=Gary Allan - Nothing On But The Radio
TTITLE5=Buddy Jewell - One Step At A Time
TTITLE6=The Gibson Brothers - Ophelia
TTITLE7=Kid Rock - Single father
TTITLE8=Trick Pony - The Bride
TTITLE9=Ryan Tyler - The Last Thing She Said
TTITLE10=Mark Chesnutt - Lord Loves The Drinkin' Man
TTITLE11=Jeffrey Steele - 20 Years Ago
TTITLE12=Roxie Dean - A Soldier's Wife
TTITLE13=Restless Heart - Feel My Way To You
TTITLE14=The Kinleys - Little Shoulders
TTITLE15=Cerrito (& Janie Frickie) - Strangers
TTITLE16=Russell Walker - Ruthann
TTITLE17=Hilljack - I Kissed Miss Mississippi
TTITLE18=Dakota - Linda Lou
TTITLE19=Michael Utley - When The Sun Goes Down (I go crazy)
EXTD=
EXTT0=
EXTT1=
EXTT2=
EXTT3=
EXTT4=
EXTT5=
EXTT6=
EXTT7=
EXTT8=
EXTT9=
EXTT10=
EXTT11=
EXTT12=
EXTT13=
EXTT14=
EXTT15=
EXTT16=
EXTT17=
EXTT18=
EXTT19=
PLAYORDER=
